<svg xmlns="http://www.w3.org/2000/svg" xmlns:xlink="http://www.w3.org/1999/xlink" viewBox="0 0 500 500" style="enable-background:new 0 0 500 500" xml:space="preserve"><circle style="fill:#e1f3ff" cx="253.1" cy="248.3" r="187.9"/><g style="opacity:.51"><path style="fill:#5adbd0" d="M169 33.6c-37.7-.2-65 50.2-47.3 87.6 13.6 34.6 57.1 45.3 82.8 21.4l59.5-48-62.5-50.3A50.5 50.5 0 0 0 169 33.7zm-.1 18.3a24.8 24.8 0 0 1 2 0c7.4 0 15.2 2.8 21.4 7.5L236 94.7l-41 33.1-1 .8c-16.8 15.7-48.4 8-57.3-14.8l-.6-1.3C124.5 88 144.1 51.8 169 52z"/><path style="fill:#4183f3" d="m331 33.6-1.8.1a50.5 50.5 0 0 0-30.7 10.6L236 94.7l59.5 48c25.7 23.8 69.2 13.1 82.8-21.5 17.8-37.4-9.6-87.8-47.3-87.6zm.1 18.3C356 52 375.5 88 364 112.5l-.6 1.3c-8.9 22.8-40.5 30.5-57.4 14.8l-.9-.8-41-33.1 43.7-35.3a35.7 35.7 0 0 1 23.4-7.5z"/></g><defs><path id="a" d="M6.5 3.5h490V500H6.5z"/></defs><clipPath id="b"><use xlink:href="#a" style="overflow:visible"/></clipPath><g style="clip-path:url(#b)"><path style="fill:#96beeb" d="M335.8 417.4v159.2L455.4 610V450.7l-119.6-33.3z" transform="translate(-3.5 -84.3)"/><path style="fill:#96beeb" d="M329.8 417.4v159.2L449.4 610V450.7l-119.6-33.3z" transform="translate(-3.5 -84.3)"/><path style="fill:#7ca4d2" d="M449.4 610h6V450.6h-6v159.2z" transform="translate(-3.5 -84.3)"/><path style="fill:#7ca4d2" d="M335.8 425.4 25.5 449.2 145 482.5l310.3-23.8-119.6-33.3z" transform="translate(-3.5 -84.3)"/><path style="fill:#96beeb" d="M33.5 441.2v178L153 652.7V474.5L33.5 441.2z" transform="translate(-3.5 -84.3)"/><path style="fill:#a9caf0" d="M335.8 417.4 25.5 441.2 145 474.5l310.3-23.8-119.6-33.3z" transform="translate(-3.5 -84.3)"/><path style="fill:#96beeb" d="M25.5 441.2v178L145 652.7V474.5L25.5 441.2z" transform="translate(-3.5 -84.3)"/><path style="fill:#7ca4d2" d="M455.4 458.7v-8l-310.3 23.8v8l310.3-23.8z" transform="translate(-3.5 -84.3)"/><path style="fill:#7ca4d2" d="M153.1 652.6h-8V474.5h8v178z" transform="translate(-3.5 -84.3)"/></g><path style="fill:#362e95" d="M157.8 284.3 54 285.4a5.7 5.7 0 0 0-4.9 8.6l39.3 68.7 117.2-14-33-56c-3.1-5.3-8.7-8.4-14.8-8.4z"/><path style="fill:#9e9cff" d="m159.6 283-103.8 1a5.7 5.7 0 0 0-5 8.6l39.4 68.8 117.2-14-33-56.1c-3.2-5.2-8.8-8.4-14.8-8.3z"/><path style="fill:#362e95" d="M90.2 361.4v4.3l-1.8-3 1.8-1.3z"/><path style="fill:#c5fff8" d="M90.2 365.7v-4.3"/><path style="fill:#362e95" d="m207.4 351.7-68.2 8.2-49 1.5v4.3l89 18.5c3 .6 5.9.8 8.8.7h.2c2.2-.2 4.4-.5 6.6-1.1l81.7-22.2c.7-.2 1.1-.8 1.1-1.5v-4.5l-24.3.7-45.9-4.6z"/><path style="fill:#9e9cff" d="m207.4 347.4-117.2 14 89 18.5c5.2 1 10.5 1 15.6-.5l81.7-22.1a1.5 1.5 0 0 0-.3-3l-68.8-7z"/><path style="fill:#fff" d="m159.6 286-103.8 1c-1.9 0-3.3 2.5-2.3 4.2l38.3 67L202.5 345l-30.8-52.2a14.2 14.2 0 0 0-12-6.8z"/><path style="fill:#362e95" d="m104 361.3 100.5-12.5h2.3l39.4 4.7c.9.1 1.3.3.9.3l-92 17.4c-1 .2-2.8.1-4 0l-47.5-9.4c-1-.1-.8-.4.3-.5z"/><path style="fill:#c5fff8" d="m202.3 363.4 22.9-4.5 2.8.1 25.6 3.5c1.1.1 1.7.3 1.2.5l-20.7 5.3h-3.4l-27.7-4.4c-1.1-.1-1.4-.4-.7-.5z"/><path style="fill:#c5fff8" d="m84.7 361.8 5.1-.7c1-.1 2.3 0 3.2 0l3.2.7c.8.1.8.4-.2.5l-5 .7-3.3-.1-3.3-.6c-.8-.2-.7-.4.3-.5z" transform="matrix(1.10072 0 0 1.1009 14 -37)"/><path style="fill:#c5fff8" d="m84.7 361.8 5.1-.7c1-.1 2.3 0 3.2 0l3.2.7c.8.1.8.4-.2.5l-5 .7-3.3-.1-3.3-.6c-.8-.2-.7-.4.3-.5zM102.7 359.5l4.5-.6h2.9l3.2.6c.8.2.8.4 0 .5l-4.5.6-3-.1-3.2-.6c-.8-.1-.8-.3 0-.4z" transform="matrix(1.10072 0 0 1.1009 14 -37)"/><path style="fill:#c5fff8" d="m102.7 359.5 4.5-.6h2.9l3.2.6c.8.2.8.4 0 .5l-4.5.6-3-.1-3.2-.6c-.8-.1-.8-.3 0-.4zM110.8 358.5l4.2-.6 2.8.1 3.2.5c.8.1.9.3.1.4l-4.2.6H114l-3.1-.6c-.9-.1-.9-.3 0-.4z" transform="matrix(1.10072 0 0 1.1009 14 -37)"/><path style="fill:#c5fff8" d="m110.8 358.5 4.2-.6 2.8.1 3.2.5c.8.1.9.3.1.4l-4.2.6H114l-3.1-.6c-.9-.1-.9-.3 0-.4zM118.5 357.5l4-.5h2.6l3.1.6c.8 0 1 .3.2.4l-3.9.5h-2.8l-3.1-.6c-.8-.1-.9-.3-.1-.4z" transform="matrix(1.10072 0 0 1.1009 14 -37)"/><path style="fill:#c5fff8" d="m118.5 357.5 4-.5h2.6l3.1.6c.8 0 1 .3.2.4l-3.9.5h-2.8l-3.1-.6c-.8-.1-.9-.3-.1-.4zM125.6 356.6l3.8-.5 2.6.1 3 .5c.9 0 1 .2.3.3l-3.7.5H129l-3.1-.5c-.8-.1-.9-.3-.2-.4z" transform="matrix(1.10072 0 0 1.1009 14 -37)"/><path style="fill:#c5fff8" d="m125.6 356.6 3.8-.5 2.6.1 3 .5c.9 0 1 .2.3.3l-3.7.5H129l-3.1-.5c-.8-.1-.9-.3-.2-.4zM132.4 355.8l3.5-.5h2.5l3 .5c.9.1 1 .3.4.4l-3.5.4h-2.6l-3-.5c-.9-.1-1-.3-.3-.3z" transform="matrix(1.10072 0 0 1.1009 14 -37)"/><path style="fill:#c5fff8" d="m132.4 355.8 3.5-.5h2.5l3 .5c.9.1 1 .3.4.4l-3.5.4h-2.6l-3-.5c-.9-.1-1-.3-.3-.3zM138.8 355l3.3-.5h2.5l3 .5c.7.1 1 .3.3.4l-3.3.4h-2.5l-3-.5c-.8-.1-1-.3-.3-.3z" transform="matrix(1.10072 0 0 1.1009 14 -37)"/><path style="fill:#c5fff8" d="m138.8 355 3.3-.5h2.5l3 .5c.7.1 1 .3.3.4l-3.3.4h-2.5l-3-.5c-.8-.1-1-.3-.3-.3zM144.8 354.2l3.1-.4h2.4l3 .5c.8 0 1 .2.4.3l-3.1.4h-2.5l-3-.5c-.7 0-.9-.2-.3-.3z" transform="matrix(1.10072 0 0 1.1009 14 -37)"/><path style="fill:#c5fff8" d="m144.8 354.2 3.1-.4h2.4l3 .5c.8 0 1 .2.4.3l-3.1.4h-2.5l-3-.5c-.7 0-.9-.2-.3-.3zM150.5 353.5l3-.4h2.3l3 .4c.7.1.9.3.4.4l-3 .3h-2.4l-3-.4c-.7-.1-.8-.3-.3-.3z" transform="matrix(1.10072 0 0 1.1009 14 -37)"/><path style="fill:#c5fff8" d="m150.5 353.5 3-.4h2.3l3 .4c.7.1.9.3.4.4l-3 .3h-2.4l-3-.4c-.7-.1-.8-.3-.3-.3zM156 352.8l2.7-.4h2.3l2.9.5c.8 0 1 .2.5.3l-2.8.3h-2.3l-3-.4c-.7-.1-1-.2-.4-.3z" transform="matrix(1.10072 0 0 1.1009 14 -37)"/><path style="fill:#c5fff8" d="m156 352.8 2.7-.4h2.3l2.9.5c.8 0 1 .2.5.3l-2.8.3h-2.3l-3-.4c-.7-.1-1-.2-.4-.3zM166 351.5l2.5-.3h2.1l2.8.4c.8.1 1 .2.6.3l-2.6.3h-2.1l-3-.4c-.6 0-.8-.2-.4-.3z" transform="matrix(1.10072 0 0 1.1009 14 -37)"/><path style="fill:#c5fff8" d="m166 351.5 2.5-.3h2.1l2.8.4c.8.1 1 .2.6.3l-2.6.3h-2.1l-3-.4c-.6 0-.8-.2-.4-.3zM170.6 351l2.4-.4h2l2.9.4c.7.1 1 .2.5.3l-2.4.3H174l-2.8-.4c-.8 0-1-.2-.5-.3z" transform="matrix(1.10072 0 0 1.1009 14 -37)"/><path style="fill:#c5fff8" d="m170.6 351 2.4-.4h2l2.9.4c.7.1 1 .2.5.3l-2.4.3H174l-2.8-.4c-.8 0-1-.2-.5-.3zM161 352.1l2.7-.3h2.2l2.9.4c.7.1 1 .2.5.3l-2.7.4-2.2-.1-3-.4c-.7 0-.9-.2-.4-.3z" transform="matrix(1.10072 0 0 1.1009 14 -37)"/><path style="fill:#c5fff8" d="m161 352.1 2.7-.3h2.2l2.9.4c.7.1 1 .2.5.3l-2.7.4-2.2-.1-3-.4c-.7 0-.9-.2-.4-.3zM94 360.6l4.8-.6h3l3.2.6c.8.2.8.4 0 .5l-4.8.6H97l-3.3-.6c-.8-.2-.7-.4.2-.5z" transform="matrix(1.10072 0 0 1.1009 14 -37)"/><path style="fill:#c5fff8" d="m94 360.6 4.8-.6h3l3.2.6c.8.2.8.4 0 .5l-4.8.6H97l-3.3-.6c-.8-.2-.7-.4.2-.5z" transform="matrix(1.10072 0 0 1.1009 14 -37)"/><path style="fill:#c5fff8" d="m116.3 363 5.7-.7h3.5l3.7.8c1 .2 1 .4 0 .6l-5.6.8h-3.7l-3.7-.8c-1-.2-1-.5.1-.6z"/><path style="fill:#c5fff8" d="m116.3 363 5.7-.7h3.5l3.7.8c1 .2 1 .4 0 .6l-5.6.8h-3.7l-3.7-.8c-1-.2-1-.5.1-.6zM136 360.4l5-.7 3.2.1 3.7.6c1 .2 1 .4.1.6l-4.8.7-3.4-.1-3.7-.7c-1-.1-1-.4 0-.5z"/><path style="fill:#c5fff8" d="m136 360.4 5-.7 3.2.1 3.7.6c1 .2 1 .4.1.6l-4.8.7-3.4-.1-3.7-.7c-1-.1-1-.4 0-.5zM145 359.2l4.5-.6c.8-.1 2.2-.1 3.2 0l3.6.6c1 .2 1 .4.2.5l-4.5.7h-3.3l-3.6-.7c-1-.2-1-.4-.2-.5z"/><path style="fill:#c5fff8" d="m145 359.2 4.5-.6c.8-.1 2.2-.1 3.2 0l3.6.6c1 .2 1 .4.2.5l-4.5.7h-3.3l-3.6-.7c-1-.2-1-.4-.2-.5zM153.2 358l4.4-.5h3l3.6.6c1 .2 1 .4.3.5l-4.3.6h-3.1l-3.6-.7c-1-.1-1-.3-.3-.4z"/><path style="fill:#c5fff8" d="m153.2 358 4.4-.5h3l3.6.6c1 .2 1 .4.3.5l-4.3.6h-3.1l-3.6-.7c-1-.1-1-.3-.3-.4zM161 357l4.1-.5h3l3.5.6c1 .1 1 .3.4.4l-4 .6h-3l-3.7-.6c-.9-.2-1-.4-.2-.5z"/><path style="fill:#c5fff8" d="m161 357 4.1-.5h3l3.5.6c1 .1 1 .3.4.4l-4 .6h-3l-3.7-.6c-.9-.2-1-.4-.2-.5zM168.4 356l3.8-.5h2.9l3.5.6c.9.1 1 .3.4.4l-3.8.5h-3l-3.5-.6c-.9-.1-1-.3-.3-.4z"/><path style="fill:#c5fff8" d="m168.4 356 3.8-.5h2.9l3.5.6c.9.1 1 .3.4.4l-3.8.5h-3l-3.5-.6c-.9-.1-1-.3-.3-.4zM175.3 355l3.6-.4h2.8l3.4.5c1 .2 1.2.3.5.4l-3.5.5h-2.9l-3.5-.5c-.9-.2-1-.3-.4-.4z"/><path style="fill:#c5fff8" d="m175.3 355 3.6-.4h2.8l3.4.5c1 .2 1.2.3.5.4l-3.5.5h-2.9l-3.5-.5c-.9-.2-1-.3-.4-.4zM181.9 354.2l3.4-.5h2.6l3.5.6c.8 0 1 .2.5.3l-3.4.5h-2.7l-3.5-.5c-.9-.2-1-.3-.4-.4z"/><path style="fill:#c5fff8" d="m181.9 354.2 3.4-.5h2.6l3.5.6c.8 0 1 .2.5.3l-3.4.5h-2.7l-3.5-.5c-.9-.2-1-.3-.4-.4zM188 353.4l3.3-.5h2.6l3.3.5c1 .1 1.2.3.6.4l-3.2.4H192l-3.4-.5c-.8-.1-1-.3-.5-.3z"/><path style="fill:#c5fff8" d="m188 353.4 3.3-.5h2.6l3.3.5c1 .1 1.2.3.6.4l-3.2.4H192l-3.4-.5c-.8-.1-1-.3-.5-.3zM193.9 352.6l3-.5 2.6.1 3.3.4c.9.1 1.1.3.6.4l-3 .4h-2.6l-3.4-.5c-.8-.1-1-.3-.5-.3z"/><path style="fill:#c5fff8" d="m193.9 352.6 3-.5 2.6.1 3.3.4c.9.1 1.1.3.6.4l-3 .4h-2.6l-3.4-.5c-.8-.1-1-.3-.5-.3zM204.7 351l2.8-.3h2.4l3.2.5c.8 0 1.1.2.6.3l-2.7.4h-2.4l-3.3-.5c-.8-.1-1.1-.2-.6-.3z"/><path style="fill:#c5fff8" d="M210.5 350.3c-.9.1-.3.4 1.3.6l5.2.6-4 .6c-.5.1-.2.2.7.4l3.4.4h2.5l4.8-.7 1.5-.3 1-.1c.4 0 0-.2-.8-.3l-3.3-.4h-.4l-6.3-.8c-1.6-.2-3.6-.3-4.6-.1l-1 .1zM199.4 351.8l3-.4h2.4l3.3.5c.8 0 1.1.2.6.3l-2.9.4h-2.5l-3.3-.5c-.8 0-1-.2-.6-.3z"/><path style="fill:#c5fff8" d="m199.4 351.8 3-.4h2.4l3.3.5c.8 0 1.1.2.6.3l-2.9.4h-2.5l-3.3-.5c-.8 0-1-.2-.6-.3zM126.5 361.7l5.3-.7h3.4l3.7.7c1 .2 1 .4 0 .6l-5.2.7c-1 .2-2.5.1-3.5 0l-3.7-.7c-1-.2-1-.5 0-.6z"/><path style="fill:#c5fff8" d="m126.5 361.7 5.3-.7h3.4l3.7.7c1 .2 1 .4 0 .6l-5.2.7c-1 .2-2.5.1-3.5 0l-3.7-.7c-1-.2-1-.5 0-.6zM125.9 365l5.6-1c1 0 2.6 0 3.6.2l4 .7c1 .2 1 .5 0 .6l-5.6.9h-3.7l-4-.9c-1-.1-1-.4 0-.6z"/><path style="fill:#c5fff8" d="m125.9 365 5.6-1c1 0 2.6 0 3.6.2l4 .7c1 .2 1 .5 0 .6l-5.6.9h-3.7l-4-.9c-1-.1-1-.4 0-.6zM145.4 362l4.9-.7 3.3.1 3.9.6c1 .2 1.1.5.2.6l-4.8.7c-.9.2-2.4.2-3.4 0l-4-.7c-1-.2-1-.4 0-.6z"/><path style="fill:#c5fff8" d="m145.4 362 4.9-.7 3.3.1 3.9.6c1 .2 1.1.5.2.6l-4.8.7c-.9.2-2.4.2-3.4 0l-4-.7c-1-.2-1-.4 0-.6zM154.2 360.8l4.6-.7c.8-.1 2.2-.1 3.2 0l3.8.7c1 .1 1.1.4.3.5l-4.5.7h-3.3l-3.9-.7c-1-.2-1-.4-.2-.5z"/><path style="fill:#c5fff8" d="m154.2 360.8 4.6-.7c.8-.1 2.2-.1 3.2 0l3.8.7c1 .1 1.1.4.3.5l-4.5.7h-3.3l-3.9-.7c-1-.2-1-.4-.2-.5zM162.4 359.5l4.3-.6h3.1l3.8.7c1 .1 1.1.3.4.5l-4.2.6c-.8.1-2.3.1-3.2 0l-3.8-.7c-1-.1-1.1-.3-.4-.5z"/><path style="fill:#c5fff8" d="m162.4 359.5 4.3-.6h3.1l3.8.7c1 .1 1.1.3.4.5l-4.2.6c-.8.1-2.3.1-3.2 0l-3.8-.7c-1-.1-1.1-.3-.4-.5zM170.2 358.4l4-.6h3l3.7.7c1 .1 1.1.3.4.4l-4 .6h-3l-3.8-.6c-1-.2-1-.4-.3-.5z"/><path style="fill:#c5fff8" d="m170.2 358.4 4-.6h3l3.7.7c1 .1 1.1.3.4.4l-4 .6h-3l-3.8-.6c-1-.2-1-.4-.3-.5zM177.4 357.4l3.8-.6h2.8l3.7.6c1 .1 1.2.3.5.4l-3.7.6h-3l-3.7-.6c-1-.1-1.1-.3-.4-.4z"/><path style="fill:#c5fff8" d="m177.4 357.4 3.8-.6h2.8l3.7.6c1 .1 1.2.3.5.4l-3.7.6h-3l-3.7-.6c-1-.1-1.1-.3-.4-.4zM184.2 356.4l3.5-.6 2.8.1 3.7.5c.9.1 1.2.3.5.4l-3.5.6-2.9-.1-3.6-.5c-1-.2-1.2-.4-.5-.4z"/><path style="fill:#c5fff8" d="m184.2 356.4 3.5-.6 2.8.1 3.7.5c.9.1 1.2.3.5.4l-3.5.6-2.9-.1-3.6-.5c-1-.2-1.2-.4-.5-.4zM190.6 355.4l3.4-.5h2.7l3.5.6c1 0 1.2.3.7.4l-3.3.5h-2.8l-3.6-.6c-1-.1-1.2-.3-.6-.4z"/><path style="fill:#c5fff8" d="m190.6 355.4 3.4-.5h2.7l3.5.6c1 0 1.2.3.7.4l-3.3.5h-2.8l-3.6-.6c-1-.1-1.2-.3-.6-.4zM196.7 354.5l3.2-.4h2.6l3.5.5c1 .1 1.2.3.6.4l-3 .4h-2.8l-3.5-.5c-1-.1-1.2-.3-.6-.4z"/><path style="fill:#c5fff8" d="m196.7 354.5 3.2-.4h2.6l3.5.5c1 .1 1.2.3.6.4l-3 .4h-2.8l-3.5-.5c-1-.1-1.2-.3-.6-.4zM202.4 353.7l3-.5 2.6.1 3.4.4c1 .2 1.2.3.7.4l-3 .5-2.6-.1-3.5-.5c-.9 0-1.1-.2-.6-.3z"/><path style="fill:#c5fff8" d="m202.4 353.7 3-.5 2.6.1 3.4.4c1 .2 1.2.3.7.4l-3 .5-2.6-.1-3.5-.5c-.9 0-1.1-.2-.6-.3zM207.9 352.9l2.8-.4h2.5l3.4.5c.9 0 1.2.2.7.3l-2.8.4H212l-3.4-.5c-.9 0-1.2-.2-.6-.3z"/><path style="fill:#c5fff8" d="m207.9 352.9 2.8-.4h2.5l3.4.5c.9 0 1.2.2.7.3l-2.8.4H212l-3.4-.5c-.9 0-1.2-.2-.6-.3zM136 363.4l5.2-.7c1-.2 2.5-.1 3.5 0l3.9.7c1 .2 1 .5.2.6l-5.2.8c-1 .2-2.6.1-3.6 0l-4-.8c-1-.2-1-.4 0-.6z"/><path style="fill:#c5fff8" d="m136 363.4 5.2-.7c1-.2 2.5-.1 3.5 0l3.9.7c1 .2 1 .5.2.6l-5.2.8c-1 .2-2.6.1-3.6 0l-4-.8c-1-.2-1-.4 0-.6zM136 366.8l5.5-.8c1-.2 2.7-.2 3.7 0l4.2.8c1 .2 1.2.5.2.7l-5.5.9c-1 .2-2.8.1-3.9 0l-4.2-.9c-1-.2-1-.5 0-.7zM155.3 363.8l4.8-.8h3.4l4 .7c1.1.2 1.3.5.5.6l-4.8.8c-.9.2-2.4.2-3.5 0l-4.1-.7c-1-.2-1.2-.5-.3-.6zM164 362.4l4.5-.7c.8-.2 2.2-.1 3.2 0l4 .7c1.1.1 1.3.4.5.5l-4.4.8h-3.4l-4-.8c-1-.1-1.2-.4-.4-.5zM172.1 361l4.2-.6h3.1l4 .7c1 .2 1.3.4.5.5l-4.1.7h-3.3l-4-.7c-1-.2-1.2-.4-.4-.5zM179.7 359.9l4-.6c.6-.2 2-.1 3 0l3.9.6c1 .2 1.2.4.5.5l-3.8.6c-.8.2-2.2.1-3.2 0l-4-.6c-1-.2-1.2-.4-.4-.5zM186.8 358.7l3.7-.5h3l3.8.6c1 .1 1.2.3.6.4l-3.6.7-3-.1-4-.6c-1-.1-1.2-.3-.5-.5zM193.5 357.7l3.4-.6h2.9l3.8.6c1 .2 1.3.4.7.5l-3.5.5h-3l-3.7-.6c-1-.1-1.3-.3-.6-.4zM199.8 356.7l3.2-.5h2.8l3.7.5c1 .2 1.3.3.7.4l-3.2.6h-2.8l-3.8-.6c-1-.1-1.2-.3-.6-.4zM205.7 355.7l3-.5 2.8.1 3.6.5c1 .1 1.3.3.8.4l-3 .5H210l-3.7-.6c-1-.1-1.3-.3-.7-.4zM211.3 354.8l3-.4h2.5l3.6.5c1 .1 1.3.3.8.4l-2.9.5-2.6-.1-3.7-.5c-1-.1-1.2-.3-.7-.4zM221.6 353.2l2.7-.4h2.4l3.5.5c1 0 1.3.2.8.3l-2.6.4H226l-3.5-.5c-1 0-1.3-.2-.8-.3zM226.4 352.4l2.5-.4 2.4.1 3.4.4c1 .1 1.3.3.9.3l-2.5.5-2.4-.1-3.5-.4c-1-.1-1.3-.3-.8-.4zM216.6 354l2.8-.4h2.5l3.5.5c1 0 1.3.2.8.3l-2.7.5H221l-3.6-.5c-.9-.2-1.2-.3-.7-.4zM146 365.3l5.2-.9c.9-.1 2.4 0 3.5.1l4.1.7c1 .2 1.2.5.3.6l-5.1 1c-1 0-2.6 0-3.7-.2l-4.1-.7c-1.1-.2-1.2-.5-.2-.6zM146.6 368.9l5.5-1c1-.1 2.7-.1 3.8.1l4.4.8c1.2.2 1.3.5.4.7l-5.5 1c-1 .2-2.8.2-4 0l-4.4-.9c-1.1-.2-1.2-.5-.2-.7zM165.7 365.6l4.8-.8c.8-.2 2.4-.2 3.4 0l4.3.7c1.1.2 1.4.5.6.7l-4.7.8c-.9.2-2.5.2-3.6 0l-4.4-.8c-1-.2-1.2-.5-.4-.6zM174.3 364l4.4-.7h3.3l4.2.8c1.1.2 1.4.4.6.6l-4.3.8c-.8.1-2.4 0-3.5-.1l-4.2-.7c-1.1-.2-1.3-.5-.5-.6z"/><path style="fill:#c5fff8" d="m174.3 364 38.3-6.6 2.8.1 3.9.5c1 .2 1.4.4.8.5l-37.6 7c-.8.1-2.4 0-3.5-.1l-4.2-.7c-1.1-.2-1.3-.5-.5-.6zM215.1 357l3-.5h2.7l3.9.5c1 .2 1.3.4.8.5l-3 .5h-2.8l-3.8-.6c-1-.1-1.4-.3-.8-.4zM220.6 356l2.8-.4h2.7l3.7.5c1 .1 1.4.3.9.4l-2.8.5h-2.7l-3.8-.5c-1-.2-1.4-.4-.8-.4zM230.6 354.3l2.6-.4h2.4l3.7.5c1 0 1.3.2.9.3l-2.5.5H235l-3.7-.5c-.9-.1-1.3-.3-.8-.4zM235.2 353.5l2.5-.4h2.4l3.5.5c1 0 1.4.2 1 .3l-2.4.5-2.5-.1-3.6-.4c-1-.2-1.3-.3-.9-.4zM225.7 355.2l2.7-.5h2.6l3.7.5c1 .1 1.3.3.9.4l-2.7.5h-2.6l-3.8-.6c-1 0-1.3-.3-.8-.3zM156.6 367.2l5-1c1 0 2.6 0 3.7.2l4.3.7c1.1.2 1.3.5.4.7l-5 1-3.8-.1-4.4-.9c-1-.2-1.2-.5-.2-.6z"/><path style="fill:#ffc445" d="m35.9 266.3 49-3.2c1.1 0 2.5.7 3 1.7l40 69.6c.6 1 .2 2-.9 2l-47.7 5c-1.1.2-2.5-.6-3.1-1.6l-41.3-71.4c-.6-1.1-.1-2 1-2.1z"/><path style="fill:#ffa145" d="m40.5 270 44.2-3c1.1-.1 2.5.6 3 1.7l6.3 10.8c.6 1 .2 2-1 2l-43.9 3.3c-1.1.1-2.5-.7-3.1-1.7L39.6 272c-.7-1-.2-2 1-2zM50.8 287.8l44-3.4c1 0 2.4.7 3 1.7L104 297c.6 1 .2 2-1 2l-43.6 3.7c-1.1.1-2.5-.7-3.1-1.7l-6.4-11c-.6-1.1-.2-2 1-2.1zM61.5 306.3l43.6-3.8c1.1-.1 2.5.6 3 1.7l6.2 10.8c.6 1 .2 1.9-.8 2L70 321c-1 .2-2.5-.6-3-1.6l-6.4-11c-.7-1.1-.2-2 .9-2.1zM71.4 323.4l43.4-4.2c1 0 2.4.7 3 1.7l6.1 10.8c.6 1 .2 1.9-.8 2l-43.2 4.5c-1.1 0-2.5-.7-3.1-1.7l-6.4-11c-.6-1-.1-2 1-2.1z"/><path style="fill:#ffddbc" d="m44.7 271.8 7.8-.5c1.1-.1 2.5.7 3.1 1.7l4 6.9c.6 1 .2 2-1 2l-7.7.6c-1.2 0-2.6-.7-3.2-1.7l-4-7c-.6-1-.2-2 1-2zM55 289.6l7.7-.6c1.2 0 2.6.7 3.2 1.7l3.9 6.9c.6 1 .2 2-1 2l-7.7.7c-1.1 0-2.5-.7-3.1-1.7l-4-7c-.6-1-.2-1.9 1-2zM65.6 308l7.7-.6c1.2-.1 2.5.7 3.1 1.7l4 6.8c.6 1 .2 2-1 2.1l-7.6.7c-1.2.1-2.5-.6-3.2-1.7l-4-6.9c-.5-1-.1-2 1-2zM75.5 325.2l7.7-.8c1 0 2.4.7 3 1.7l4 6.8c.6 1 .2 2-1 2.1l-7.6.8c-1.1.1-2.5-.7-3-1.7l-4-6.9c-.7-1-.2-2 .9-2zM60.9 271.4l23.5-1.6c.8 0 1.8.5 2.2 1.2.4.8.1 1.4-.6 1.5L62.4 274c-.8 0-1.8-.5-2.2-1.2-.4-.8-.1-1.4.7-1.5zM71 289.1l23.5-1.8c.7 0 1.7.5 2.1 1.2.5.7.2 1.4-.6 1.4l-23.4 1.9c-.8 0-1.8-.5-2.2-1.2-.4-.8-.2-1.4.6-1.5zM81.6 307.4l23.3-2c.7-.1 1.7.4 2.1 1.2.4.7.2 1.4-.6 1.4L83 310.1c-.7 0-1.7-.5-2.2-1.2-.4-.8-.1-1.4.7-1.5zM91.4 324.4l23-2.3c.9 0 1.8.5 2.2 1.2.5.8.2 1.4-.6 1.5L93 327c-.8 0-1.8-.5-2.2-1.3-.4-.7-.1-1.4.7-1.4zM64.1 277.1l23.6-1.7c.7 0 1.7.5 2.1 1.2.4.8.2 1.4-.6 1.5l-23.5 1.7c-.8 0-1.8-.5-2.2-1.2-.5-.8-.2-1.4.6-1.5zM74.3 294.8l23.4-2c.8 0 1.7.5 2.1 1.3.5.7.2 1.4-.6 1.4l-23.3 2c-.8 0-1.8-.5-2.2-1.3-.5-.7-.2-1.4.6-1.4zM84.8 313l23.3-2c.7-.1 1.7.4 2.1 1.2.4.7.2 1.3-.6 1.4l-23.2 2.2c-.8 0-1.8-.5-2.2-1.3-.4-.7-.1-1.4.6-1.4zM94.6 330l23.1-2.3c.8 0 1.7.5 2.1 1.2.5.7.2 1.4-.6 1.5l-23 2.3c-.8 0-1.8-.5-2.2-1.2-.5-.8-.2-1.4.6-1.5z"/><path style="fill:#5adbd0" d="m138.4 231.4 3.6-.2c1.3 0 2.8.8 3.7 2l6.8 8.8-12 .7-3.5-9.1c-.4-1.2.1-2.1 1.4-2.2z"/><path style="fill:#5adbd0" d="m126.5 240.5 1.1-2.7c.4-1 1.7-1.1 3.2-.5l10.6 4.7-3.8 9-9.6-7.3c-1.3-1-2-2.3-1.5-3.2z"/><path style="fill:#5adbd0" d="m130.5 258.2-2-3.6c-.8-1.3-.5-2.4.6-2.7l8.3-2.2 6.8 11.9-10.2-1a5 5 0 0 1-3.5-2.4z"/><path style="fill:#5adbd0" d="m148.1 273.8-4-2.4c-1.4-.7-2.3-2-2.1-3.2l1-7.9 13.3 7.9-4.7 5.7c-.6.7-2 .7-3.5-.1z"/><path style="fill:#5adbd0" d="m168.7 278.1-3.6.3c-1.2 0-2.7-.7-3.6-1.9l-6.8-8.8 12-.8 3.3 9c.5 1.2 0 2.1-1.3 2.2z"/><path style="fill:#5adbd0" d="m180.2 268.8-1.1 2.7c-.4 1-1.6 1.2-3 .5l-10.4-4.5 3.6-9 9.4 7.2c1.2 1 1.8 2.2 1.5 3.1z"/><path style="fill:#5adbd0" d="m176.1 251.6 2 3.5c.7 1.2.4 2.2-.6 2.5l-8 2.3-6.7-11.8 10 1.1c1.2.2 2.7 1.2 3.3 2.4z"/><path style="fill:#5adbd0" d="m159 236.1 4 2.4c1.2.8 2.1 2 2 3.1l-.9 7.8-13.2-7.9 4.7-5.5c.6-.8 2-.7 3.4.1z"/><path style="fill:#40aaa1" d="M144.4 237h-1c-10 .5-13.7 9-8 19 5.6 10 18.3 17.3 28.3 16.6 9.9-.7 13.3-9.2 7.8-19a34.4 34.4 0 0 0-27.1-16.6zm5.9 11.4c3.5 0 7.8 2.6 9.7 6 2 3.5.8 6.5-2.8 6.8-3.6.2-8-2.4-10.1-6-2-3.5-.7-6.5 2.9-6.8h.3z"/><path style="fill:#5adbd0" d="M145.8 239.7h-.8c-8.6.5-11.7 7.7-6.9 16.1 4.8 8.4 15.6 14.7 24 14.1 8.5-.6 11.4-7.8 6.7-16a29.2 29.2 0 0 0-23-14.2zm4.5 8.7c3.5 0 7.8 2.6 9.7 6 2 3.5.8 6.5-2.8 6.8-3.6.2-8-2.4-10.1-6-2-3.5-.7-6.5 2.9-6.8h.3z"/><path style="fill:#40aaa1" d="M149 245.8h-.5c-5 .4-6.9 4.6-4 9.6 2.8 5 9.2 8.7 14.2 8.4 5-.4 6.7-4.6 4-9.6a17.3 17.3 0 0 0-13.7-8.4zm1.3 2.6c3.5 0 7.8 2.6 9.7 6 2 3.5.8 6.5-2.8 6.8-3.6.2-8-2.4-10.1-6-2-3.5-.7-6.5 2.9-6.8h.3z"/><path style="fill:#4183f3" d="M105 209h2.4c.8-.1 1.8.4 2.4 1.2l4.4 5.6-7.9.4-2.1-5.8c-.3-.8 0-1.4.9-1.4z"/><path style="fill:#4183f3" d="m97.3 214.7.8-1.7c.2-.6 1-.7 2-.3l6.9 3-2.5 5.7-6.2-4.7c-.8-.6-1.3-1.5-1-2z"/><path style="fill:#4183f3" d="m99.8 225.9-1.3-2.3c-.4-.8-.2-1.5.5-1.7l5.3-1.3 4.4 7.6-6.6-.8c-.9-.1-1.8-.8-2.3-1.5z"/><path style="fill:#4183f3" d="m111.2 236-2.6-1.6c-1-.5-1.5-1.4-1.4-2l.7-5 8.6 5-3.1 3.6c-.4.5-1.3.4-2.2 0z"/><path style="fill:#4183f3" d="m124.5 238.9-2.3.1a3 3 0 0 1-2.4-1.2l-4.3-5.6 7.8-.4 2.1 5.7c.3.8 0 1.4-.9 1.4z"/><path style="fill:#4183f3" d="m132 233.2-.6 1.7c-.3.5-1.1.6-2 .2l-6.8-3 2.5-5.6 6 4.6c.8.6 1.2 1.5 1 2z"/><path style="fill:#4183f3" d="m129.6 222.1 1.2 2.3c.5.7.3 1.4-.4 1.6l-5.2 1.4-4.3-7.6 6.4.8c.9.1 1.8.8 2.3 1.5z"/><path style="fill:#4183f3" d="m118.4 212.1 2.6 1.6c.8.5 1.4 1.3 1.3 2l-.6 5-8.6-5.2 3.1-3.5c.4-.4 1.3-.4 2.2.1z"/><path style="fill:#3461ad" d="M108.6 212.6h-.3c-6.5.2-9 5.6-5.3 12 3.6 6.3 11.8 11.1 18.3 10.8 6.5-.4 8.8-5.7 5.2-12a22.5 22.5 0 0 0-17.9-10.8zm4 7.3a8 8 0 0 1 6.4 3.9c1.3 2.2.5 4.1-1.9 4.3-2.3 0-5.2-1.7-6.5-4-1.3-2.2-.5-4.1 1.9-4.2z"/><path style="fill:#4183f3" d="M109.8 214.3h-.5c-5.6.2-7.6 4.8-4.5 10.1 3 5.4 10 9.5 15.5 9.2 5.5-.2 7.5-4.8 4.5-10s-9.6-9.3-15-9.3zm2.8 5.6a8 8 0 0 1 6.4 3.9c1.3 2.2.5 4.1-1.9 4.3-2.3 0-5.2-1.7-6.5-4-1.3-2.2-.5-4.1 1.9-4.2z"/><path style="fill:#3461ad" d="M111.8 218.2h-.3c-3.2.2-4.4 2.9-2.6 6 1.8 3.2 6 5.7 9.2 5.5 3.2-.2 4.4-2.8 2.6-6-1.7-3-5.6-5.4-8.9-5.5zm.8 1.7a8 8 0 0 1 6.4 3.9c1.3 2.2.5 4.1-1.9 4.3-2.3 0-5.2-1.7-6.5-4-1.3-2.2-.5-4.1 1.9-4.2z"/><path style="fill:#ffc445" d="M134.1 210.2h1.6c.6 0 1.3.3 1.7.8l3 4-5.4.1-1.5-4c-.2-.5 0-.9.6-.9z"/><path style="fill:#ffc445" d="m128.9 214.1.5-1.2c.2-.4.8-.4 1.4-.1l4.7 2-1.7 4-4.2-3.3c-.6-.4-.9-1-.7-1.4z"/><path style="fill:#ffc445" d="m130.7 221.8-1-1.6c-.2-.5-.1-1 .4-1.1l3.6-1 3 5.3-4.5-.5c-.6-.1-1.2-.6-1.5-1z"/><path style="fill:#ffc445" d="m138.4 228.8-1.8-1.1c-.6-.4-1-1-.9-1.4l.4-3.4 6 3.5-2.2 2.4c-.3.3-.9.3-1.5 0z"/><path style="fill:#ffc445" d="m147.5 230.8-1.6.1c-.5 0-1.2-.3-1.6-.8l-3-4 5.3-.2 1.5 4c.2.5 0 1-.6 1z"/><path style="fill:#ffc445" d="m152.7 227-.5 1c-.2.5-.8.5-1.4.3l-4.6-2.1 1.6-3.9 4.2 3.2c.6.4.8 1 .7 1.4z"/><path style="fill:#ffc445" d="m150.9 219.3.9 1.5c.3.6.2 1-.3 1.2l-3.6.9-3-5.2 4.5.5c.6.1 1.2.5 1.5 1z"/><path style="fill:#ffc445" d="m143.3 212.4 1.7 1c.6.4 1 1 1 1.4l-.5 3.4-5.8-3.5 2-2.4c.3-.3 1-.3 1.6 0z"/><path style="fill:#df9b07" d="M136.8 212.7h-.4c-4.5.2-6.1 3.8-3.6 8.2 2.5 4.4 8 7.7 12.5 7.5 4.4-.2 6-4 3.5-8.2a15.5 15.5 0 0 0-12-7.5zm2.5 5c1.6 0 3.5 1.2 4.4 2.7.9 1.6.3 2.9-1.3 3-1.5 0-3.6-1.2-4.4-2.7-1-1.6-.4-3 1.2-3h.1z"/><path style="fill:#ffc445" d="M137.2 213.9h-.2c-3.7.1-5.1 3.3-3 7 2.1 3.6 6.9 6.5 10.6 6.3 3.8-.2 5.1-3.3 3-7-2-3.6-6.7-6.4-10.4-6.3zm2.1 3.8c1.6 0 3.5 1.2 4.4 2.7.9 1.6.3 2.9-1.3 3-1.5 0-3.6-1.2-4.4-2.7-1-1.6-.4-3 1.2-3h.1z"/><path style="fill:#df9b07" d="M138.8 216.6h-.2c-2.2 0-3 2-1.8 4.1 1.2 2.2 4 3.9 6.3 3.8 2.2-.1 3-2 1.8-4.1a7.8 7.8 0 0 0-6.1-3.8zm.5 1.1c1.6 0 3.5 1.2 4.4 2.7.9 1.6.3 2.9-1.3 3-1.5 0-3.6-1.2-4.4-2.7-1-1.6-.4-3 1.2-3h.1z"/><path style="fill:#5adbd0" d="m7.3 209.9 60.8-2.3c4.3-.2 9.6 3 11.9 7L95 241c2.3 4 .8 7.5-3.4 7.7l-60 3.5c-4.4.3-10-2.8-12.4-7L3.5 217.7c-2.5-4.1-.7-7.6 3.8-7.8z"/><path style="fill:#4183f3" d="M43.4 230c4.2 7.3 1.2 13.5-6.6 14-8 .4-18-5.2-22.3-12.7-4.2-7.4-1.2-13.7 6.9-14 8-.4 17.8 5.3 22 12.6z"/><path style="fill:#d9e7ff" d="M22.7 220.2c-3.1.2-4.2 2.8-2.4 6 1.8 3.1 5.8 5.5 9 5.4 3-.2 4-2.8 2.2-6-1.8-3-5.7-5.5-8.8-5.4zm9.2 11.4c-.6.4-1.4.6-2.3.7a8 8 0 0 1-2.6-.4c-3 1.3-4 4.6-2 8.5 3.8 2.1 8 3.2 11.4 3 3.5-.2 6.1-1.6 7.4-4a19 19 0 0 0-12-7.8z"/><path style="fill:#4183f3" d="m31.7 188.1 26.2-1c.5 0 1.2.3 1.5.8.3.5 0 1-.5 1l-26.1 1c-.6.1-1.2-.3-1.5-.8-.3-.5-.1-1 .4-1zM33.7 191.5l11-.4c.6 0 1.2.3 1.5.8.3.5.1 1-.4 1l-11 .5c-.6 0-1.3-.4-1.6-.9-.3-.5 0-1 .5-1zM35.6 195l20.5-1c.5 0 1.2.3 1.5.9.3.5 0 .9-.5 1l-20.4.9c-.6 0-1.2-.4-1.5-.9-.3-.5-.1-1 .4-1zM37.5 198l15.2-.6c.5 0 1.2.3 1.5.8.2.5 0 1-.5 1l-15.2.7c-.5 0-1.2-.3-1.5-.8-.3-.5 0-1 .5-1zM40.5 203.4l20.1-1c.6 0 1.2.3 1.5.8.3.6.1 1-.4 1l-20 1c-.6.1-1.3-.3-1.6-.8-.3-.5-.1-1 .4-1zM42.6 207l20-1c.6 0 1.3.3 1.6.8.3.5 0 1-.5 1l-20 1c-.6.1-1.2-.3-1.5-.8-.3-.5-.1-1 .4-1z" transform="matrix(1.38184 0 0 1.38204 -4.9 -44.6)"/><path style="fill:#4183f3" d="m118.3 282.3 48.5-3.7c1.9-.1 4.2 1.3 5.3 3.1l20.9 36.7c1 1.9.4 3.5-1.5 3.7l-47.6 4.8c-2 .2-4.5-1.2-5.5-3.1L116.7 286c-1-2-.3-3.6 1.6-3.8z"/><path style="fill:#b7d2ff" d="m127.4 293.5 44-3.6c.7 0 1.5.4 1.9 1 .4.8.1 1.3-.5 1.4l-44 3.7c-.7 0-1.5-.5-2-1.1-.3-.7 0-1.3.6-1.4zM131 299.8 175 296c.7 0 1.5.5 1.9 1.1.3.7.1 1.3-.5 1.3l-43.9 3.9c-.7 0-1.5-.5-2-1.1-.3-.7 0-1.3.6-1.4zM134.6 306.1l43.8-4c.7 0 1.5.5 1.9 1.2.3.6.1 1.2-.6 1.3l-43.7 4c-.7 0-1.6-.5-2-1.2-.3-.6 0-1.2.6-1.3zM138.2 312.4l43.7-4c.6-.1 1.5.3 1.9 1 .3.7.1 1.2-.6 1.3l-43.6 4.1c-.7 0-1.6-.4-2-1-.3-.8 0-1.4.6-1.4zM141.8 318.6l43.6-4.2c.6 0 1.5.5 1.8 1.1.4.7.2 1.3-.5 1.3l-43.5 4.3c-.7 0-1.6-.5-2-1.1-.3-.7 0-1.3.6-1.4zM126.8 283.8h-.6l-1.7 4c0 .2.1.5.4.6l5.8 3.4h.6c.1-.2 0-.5-.3-.7l-5.4-3 1.5-3.7c.1-.2 0-.4-.3-.6zM134.3 283.2c0-.2.3-.2.6 0l5.7 3.3c.3.2.5.5.4.6l-1.6 4c0 .2-.4.2-.6 0-.3-.1-.4-.4-.4-.6l1.5-3.6-5.3-3c-.3-.2-.4-.5-.3-.7z"/><path style="fill:#4183f3" d="M133.4 291c.2.5 0 .9-.4.9-.5 0-1-.3-1.3-.7-.2-.4 0-.8.4-.8.5 0 1 .3 1.3.7zM135.5 290.9c.2.4 0 .8-.4.8s-1-.3-1.2-.7c-.3-.4-.1-.8.3-.8.5 0 1 .3 1.3.7z"/><path style="fill:#b7d2ff" d="M137.7 290.7c.2.4 0 .8-.4.8s-1-.2-1.2-.6c-.3-.5 0-.8.4-.9.4 0 1 .3 1.2.7z"/><path style="fill:#ffc445" d="m148.4 294.9 47.2-4c1.8-.1 4.1 1.2 5.1 3l20.6 36.3c1 1.8.4 3.4-1.4 3.6l-46.4 5c-1.9.3-4.3-1-5.3-3l-21.3-37.2c-1-1.9-.4-3.5 1.5-3.7z"/><path style="fill:#ffe1a2" d="m157.3 306 42.8-4c.7 0 1.5.5 1.9 1.1.3.7.1 1.3-.5 1.3l-42.8 4c-.7 0-1.5-.5-1.9-1.2-.4-.6-.1-1.2.5-1.3zM160.9 312.1l42.7-4c.6 0 1.4.4 1.8 1.1.4.6.2 1.2-.5 1.3l-42.7 4c-.6.1-1.5-.4-1.9-1-.3-.7-.1-1.3.6-1.4zM164.4 318.3l42.6-4.1c.7 0 1.5.4 1.8 1 .4.7.2 1.3-.5 1.3l-42.5 4.2c-.7.1-1.5-.4-2-1-.3-.7 0-1.3.6-1.4zM168 324.5l42.5-4.2c.6-.1 1.4.4 1.8 1 .3.7.1 1.2-.5 1.3l-42.5 4.3c-.7 0-1.5-.4-1.9-1-.4-.7-.1-1.3.5-1.4zM171.5 330.7l42.4-4.4c.6 0 1.4.4 1.8 1 .4.7.2 1.3-.5 1.3l-42.4 4.5c-.6 0-1.5-.4-1.8-1-.4-.7-.2-1.3.5-1.4zM156.6 296.3h-.5l-1.6 4c-.1.2 0 .4.3.6l5.7 3.3h.6c.1-.3 0-.5-.3-.7l-5.3-3 1.5-3.6c0-.2 0-.4-.3-.6zM164 295.7c0-.2.3-.2.5 0l5.7 3.2c.2.2.4.4.3.6l-1.5 4h-.6c-.3-.2-.4-.4-.4-.6l1.5-3.6-5.2-3c-.3-.2-.4-.4-.4-.6z"/><path style="fill:#ffc445" d="M163 303.5c.3.4.2.7-.3.8-.4 0-1-.3-1.2-.7-.2-.4 0-.8.4-.8s1 .2 1.2.7zM165.2 303.3c.2.4 0 .7-.4.8-.4 0-1-.3-1.2-.7-.2-.4 0-.8.3-.8.5 0 1 .3 1.3.7zM167.3 303c.2.5 0 .9-.3.9-.5 0-1-.3-1.3-.7-.2-.4 0-.8.4-.8s1 .3 1.2.7zM182.2 239.2v1c0 .5.2 1 .5 1.7l15.4 27c.3.5.9.9 1.3.8l35.3-2.5c.4 0 .6-.5.3-1l-15-26.5c-.2-.5-.8-.9-1.3-.8l-12.3.7c-.5 0-1.2-.3-1.7-.7l-1-.9c-.5-.4-1.2-.7-1.7-.7l-18.9 1c-.5.1-.9.4-.9 1z"/><path style="fill:#5adbd0" d="m208 286 31.6-2.5c.3 0 .6.2.7.4l25.3 44.8c.2.3 0 .5-.2.5l-31 3.4c-.3 0-.6-.2-.8-.4l-25.8-45.6c-.1-.3 0-.5.2-.5z"/><path style="fill:#b0f8f2" d="m211.8 288.2 27-2.3c.4 0 1 .3 1.2.7.2.5 0 .8-.3.9l-27 2.2c-.5 0-1-.2-1.3-.7-.2-.4 0-.8.4-.8zM213.3 291l27-2.3c.5 0 1 .2 1.2.7.3.4.1.8-.3.8l-27 2.3c-.4 0-1-.3-1.2-.7-.2-.4 0-.8.3-.8zM215 294l27-2.4c.4 0 1 .3 1.2.7.2.4 0 .8-.3.8l-27 2.4c-.4 0-1-.3-1.2-.7-.3-.4-.1-.8.3-.9zM216.7 296.8l26.9-2.4c.4 0 1 .3 1.2.7.2.5 0 .8-.3.9l-27 2.4c-.4 0-1-.3-1.2-.7-.2-.5 0-.9.4-.9zM218.2 299.5l27-2.4c.3 0 .9.3 1.1.7.2.5.1.8-.3.9l-27 2.4c-.3 0-.9-.3-1.1-.7-.3-.4-.1-.8.3-.9zM219.7 302.2l27-2.4c.3 0 .9.3 1.1.7.2.4.1.8-.3.8l-26.9 2.5c-.4 0-1-.3-1.2-.7-.2-.4 0-.8.3-.9zM221.5 305.4l26.9-2.5c.4 0 1 .3 1.2.7.2.4 0 .8-.3.8l-26.9 2.6c-.4 0-1-.3-1.2-.7-.2-.5-.1-.8.3-.9zM223.3 308.5l26.8-2.6c.4 0 1 .3 1.2.7.2.5 0 .8-.3.9l-26.8 2.6c-.5 0-1-.3-1.2-.7-.3-.5-.2-.9.3-.9zM224.9 311.3l26.8-2.6c.4 0 .9.3 1.1.7.3.4.1.8-.3.8l-26.8 2.6c-.4 0-1-.2-1.2-.7-.2-.4 0-.8.4-.8zM226.5 314.2l26.8-2.6c.4 0 1 .2 1.1.7.3.4.2.8-.3.8l-26.7 2.6c-.4 0-1-.2-1.2-.7-.3-.4-.1-.8.3-.8zM228.1 317.1l26.8-2.7c.4 0 1 .3 1.2.7.2.4 0 .8-.3.9l-26.8 2.7c-.4 0-1-.3-1.2-.7-.2-.5 0-.9.3-.9zM229.8 320l26.7-2.7c.5 0 1 .3 1.2.7.3.5.1.8-.3.9l-26.7 2.7c-.4 0-1-.3-1.2-.7-.2-.4-.1-.8.3-.8zM231.3 322.6 258 320c.4 0 1 .2 1.1.7.3.4.1.8-.3.8l-26.6 2.8c-.5 0-1-.3-1.2-.7-.3-.4-.1-.8.3-.9zM233 325.7l26.7-2.8c.4 0 .9.2 1.1.7.3.4.1.8-.3.8l-26.6 2.8c-.4 0-1-.2-1.2-.7-.3-.4-.1-.8.3-.8zM234.5 328.2l26.6-2.8c.4 0 1 .3 1.2.7.2.4 0 .8-.3.8l-26.7 2.9c-.4 0-1-.3-1.2-.7-.2-.4 0-.8.4-.9z"/><path style="fill:#4183f3" d="m216.2 277.8 31.3-2.4.7.4 25.1 44.6c.2.2 0 .5-.2.5l-30.7 3.2c-.3 0-.6-.2-.7-.4L216 278.4c-.1-.3 0-.5.2-.6z"/><path style="fill:#b7d2ff" d="m220 280 26.7-2.2c.4 0 1 .3 1.2.7.2.4 0 .8-.4.8l-26.7 2.2c-.4 0-1-.3-1.2-.7-.2-.5-.1-.8.3-.9zM221.5 282.7l26.7-2.2c.4 0 1 .3 1.2.7.2.5 0 .8-.3.9l-26.7 2.1c-.5 0-1-.2-1.2-.7-.3-.4-.1-.8.3-.8zM223.2 285.7l26.7-2.3c.4 0 .9.3 1.1.8.3.4.1.7-.3.8l-26.7 2.2c-.4 0-1-.3-1.2-.7-.2-.4 0-.8.4-.8zM224.8 288.5l26.7-2.2c.4 0 .9.2 1.1.7.3.4.1.8-.3.8l-26.6 2.3c-.5 0-1-.3-1.2-.7-.3-.5-.1-.9.3-.9zM226.3 291.2 253 289c.4 0 .9.3 1.1.7.3.5.1.8-.3.9l-26.6 2.3c-.4 0-1-.3-1.2-.7-.2-.5-.1-.8.3-.9zM227.8 294l26.7-2.4c.4 0 .9.3 1.1.7.3.4.1.8-.3.8l-26.6 2.4c-.4 0-1-.3-1.2-.7-.2-.5 0-.8.3-.9zM229.6 297l26.6-2.3c.4 0 1 .3 1.2.7.2.4 0 .8-.3.8l-26.6 2.4c-.4 0-1-.3-1.2-.7-.2-.4-.1-.8.3-.8zM231.4 300.1l26.5-2.4c.4 0 1 .3 1.2.7.2.4 0 .8-.3.9l-26.6 2.4c-.4 0-1-.3-1.2-.7-.2-.4 0-.8.4-.9zM233 303l26.5-2.5c.4 0 .9.2 1.1.6.3.5.1.8-.3.9l-26.5 2.5c-.4 0-1-.3-1.2-.7-.2-.5 0-.9.3-.9zM234.6 305.8l26.5-2.5c.4 0 .9.3 1.1.7.3.4.1.8-.3.8l-26.5 2.5c-.4 0-1-.2-1.2-.7s0-.8.4-.8zM236.2 308.7l26.5-2.5c.4 0 .9.2 1.1.6.3.5.1.8-.3.9l-26.4 2.5c-.4 0-1-.2-1.2-.7-.3-.4-.1-.8.3-.8zM237.9 311.6l26.4-2.5c.4 0 1 .2 1.2.7.2.4 0 .7-.3.8l-26.5 2.6c-.4 0-1-.3-1.2-.7-.2-.4 0-.8.4-.9zM239.3 314.2l26.4-2.6c.4 0 1 .2 1.2.7.2.4 0 .8-.3.8l-26.4 2.6c-.4 0-1-.2-1.2-.7-.2-.4-.1-.8.3-.8zM241 317.2l26.4-2.6c.4 0 1 .2 1.2.7.2.4 0 .8-.3.8l-26.4 2.7c-.4 0-1-.3-1.2-.7-.2-.5 0-.8.3-.9zM242.5 319.8l26.3-2.7c.4 0 1 .2 1.2.7.2.4 0 .8-.3.8l-26.4 2.7c-.4 0-1-.2-1.1-.7-.3-.4-.1-.8.3-.8z"/><path style="fill:#5adbd0" d="M174.2 192.7c-10.6.4-14.5 9.3-8.4 20 .5.9 1 1.8 1.7 2.7h-.8c-5 .2-6.8 4.4-4 9.4 2.9 5 9.2 8.8 14.2 8.5l43.3-2.3c5.6-.3 7.5-5.2 4.3-10.8-3.2-5.7-10.3-10.2-16-10-1.7.2-3.2.7-4.2 1.6l-.4-.7c-5.9-10.5-19.1-18.7-29.7-18.4z"/><defs><path id="c" d="M6.5 3.5h490V500H6.5z"/></defs><clipPath id="d"><use xlink:href="#c" style="overflow:visible"/></clipPath><g style="clip-path:url(#d)"><path style="fill:#482d88" d="M259.5 436.8c-5.8 9-.6 22.7 1 27.8 1.7 5.1 26.7 39.8 26.7 39.8l28.6-3.7-17.5-44.2s-15.7-14-24.9-18.7c-9.1-4.8-14-1-14-1z"/><path style="fill:#482d88" d="M347.6 401s-70.9 18.1-80.6 21.2c-9.7 3-9.8 14.1-9.8 14.1l112.4-9.8s-2.5-11.3-7.2-19c-4.7-7.6-14.8-6.4-14.8-6.4z"/><path style="opacity:.357;fill:#1f0361;enable-background:new" d="M349.2 401h-1.6l-16.8 4.4c-.5 4 .2 6.7-1.7 8.1-2.5 1.8-9.4.7-16 2.7-6.7 2-37.2 10.3-45 11.7-3.7.7-7.1 1.8-9.8 3-1 2.9-1.1 5.4-1.1 5.4l105-9.1c2-3.4 3.9-7.6 4-11.8-1-2.7-2.3-5.5-3.8-7.9-3.5-5.7-10-6.4-13.2-6.5z"/><path style="fill:#482d88" d="M242.4 444c-5.7 9-.6 22.7 1.1 27.8 1.7 5 26.6 39.8 26.6 39.8l28.6-3.7-17.4-44.3s-15.8-14-24.9-18.7c-9.2-4.7-14-1-14-1z"/><path style="opacity:.2183;fill:#1f0361;enable-background:new" d="M264.4 457.5a21.8 21.8 0 0 0 1.6 23.6c4.9 6.2 19.6 29 23 30.3 3.5 1.4 9.5.7 13.7 0 4.2-.7 3.2-3.4-1-13-4.1-9.6-10.6-28-16.6-31-6-3.1-20.7-9.9-20.7-9.9z"/><path style="fill:#482d88" d="M405.7 416.6c-.3 5.5 3.3 18.5-1 34.2-4.5 15.8-15.2 22.8-27.9 26.2-12.7 3.3-97.3-7-97.3-7s-19.4 1.6-26.3-1.4c-7-3-12.1-18-10.9-24.2 1.2-6.3 8.5-6 12.5-10.1s76.4-19.3 82.6-20.2c6.2-.9 11-2.2 11-2.2l57.3 4.7z"/><path style="opacity:.2183;fill:#1f0361;enable-background:new" d="M360.8 415.2c-2.6 0-3 .7-3 .7 9.2 10.4 7.8 12.6 9.8 21.8 2 9-6.2 7.3-13 1.8-6.7-5.6-10.6-5.4-6.5-.2 4.2 5.2.7 14.6-15.8 14.5-16.5 0-62.6-1.8-67.8 3.7-3.4 3.6-7 9.2-2.7 13 7.2.5 17.7-.5 17.7-.5s84.6 10.3 97.3 7c12.7-3.4 23.4-10.4 27.8-26.2 4.4-15.7.8-28.7 1-34.2l-5.2-.5c-12.7.2-29 .9-34.5-.2-2.3-.5-3.9-.6-5-.7z"/><path style="fill:#3d1f84" d="m340 404.3-.3 9.4s11.8 4 31.7 7.1c19.8 3.1 38-4.3 42.5-5.8s5.7-5.9 5.7-5.9l-1.6-9-78 4.2z"/><path style="fill:#feb988" d="M258.7 280.7c-.4-.2-6.9-.8-11.6-.1-4.6.8-5.2 1.8-5.2 1.8a37.5 37.5 0 0 0 15 3.8c.4-.3 1.8-5.5 1.8-5.5z"/><path style="fill:#feb988" d="M256.8 284s-7.5-2.2-12.4-2.5c-5-.4-6 .6-6.6 1.4-.6.9.5 1.8.5 1.8l15.5 4.1 3-4.8z"/><path style="fill:#feb988" d="M252.5 286.2S248 285 242 284c-6-.9-7.4-.4-8.2-.2-.8.2-.8 1.1-.8 1.1s1.2 1.4 4.2 3 13 5 13 5 2-1.7 2.6-3c.6-1.3-.3-3.7-.3-3.7z"/><path style="fill:#feb988" d="M247.6 297.7s-9.3-6.6-13.4-8.5c-4-2-6-3.5-6.2-4.8 0-1.3 2.2-1.5 3.8-1.1 1.5.4 11.5 5 14.5 6.4 3 1.3 6.1 3 6.1 3l-4.8 5zM329 314.5 281.2 290s-3.5 2-4.8 4.8c-1.3 2.8-1.6 7.6-1.6 7.6l41.6 38.3s.3 2 4.1 0c3.7-2 7.5-14 8.3-17.3.8-3.4.1-8.4.1-8.4v-.5z"/><path style="fill:#feb988" d="M274.8 302.4s-16.4-1.2-20.5-2.2c-4.2-1-6.7-2.5-6.7-2.5s1.2-7.9 3.6-10.3c2.4-2.3 4.2-3.4 5-4.6l.9-1.7s4.1-.3 9.8 1a54 54 0 0 1 14.3 8s-1.3 4.7-1.9 7.8c-.5 3-4.5 4.5-4.5 4.5z"/><path style="fill:#feb988" d="M278 287.8s-5-6.6-8-9.7c-2.8-3-7-7.3-8.2-7.8-1.3-.6-5.4-3.2-7.2-5-1.8-2-3 .5-2.8 2.4.2 2 1.3 4 4 6.3 2.6 2.1 3.4 2.6 3.3 3.8-.1 1.2-2 3.3-2 3.3s10.5 7.2 16.2 8.8c5.7 1.7 4.7-2 4.7-2z"/><path style="opacity:.3193;fill:#ff5f52;enable-background:new" d="M248.5 280.4a23.9 23.9 0 0 0-4.7 1c1 0 8.3 1.3 10.1 1.8 1.9.4 3.1.9 3.1.9s.5-1-.6-1.4-4-.8-6.6-1.5c-.8-.2-1.2-.5-1.3-.8zm-6.3 1c-3.1 0-4 .9-4.4 1.5a1 1 0 0 0-.2.6c-2.4-.1-3.3.1-3.8.3a1 1 0 0 0-.3.1l-1.7-.6c-1.6-.4-3.9-.2-3.8 1.1.1 1.3 2.1 2.9 6.2 4.8 4.1 2 13.4 8.5 13.4 8.5s2.5 1.6 6.7 2.5c4.1 1 20.5 2.3 20.5 2.3l41.6 38.2s.3 2 4 0c3.8-2 7.6-14 8.4-17.3.8-3.4.1-8.4.1-8.4v-.5l-4.8-2.5c.4 9.7-9.8 16.8-9.8 16.8l-36.5-30.3c-1.5-1.2-24.1-1.2-26.7-2-2.5-.9-16-9.3-18.6-10.6-2.5-1.3-1.8-2.1-1.1-2.1s2.6.5 2.6.5a548.7 548.7 0 0 0 15.6 6.8s.3-.9-.3-1.4c-.6-.5-9.4-3.7-10.6-4.4-1.2-.7-.3-1.7-.3-1.7s6 .7 8.4 1.2c2.4.5 6 1.8 6 1.8s.2-.6-.3-1c-.4-.4-3.1-1-6.4-1.6-3.3-.7-4.5-1-4.5-1.6 0-.5 1.2-.9 1.8-1h-1.2z"/><path style="fill:#ae97ef" d="M393.3 269c-10.3-3-18 5.5-20 7.5-2 2.1-30.4 35.1-32.3 36-2 .8-2.5 3.1-2.5 3.1l-6.3 31.9s4 0 6.5-.8c2.4-.8 5.1-3.4 5.1-3.4s55.5-39.5 60.5-49.6c5-10.1 1.4-13.8-2.3-19-3.6-5.2-8.7-5.7-8.7-5.7z"/><path style="opacity:.357;fill:#6648ba;enable-background:new" d="M382.7 273h-2.3c-4.8.1-4.6 2.6-7.2 5-2.6 2.4-25.3 35-27.5 37-2.1 1.9-.2-3.2-2.7-3.3l-1-.2a6 6 0 0 1-1 1c-2 .8-2.5 3.1-2.5 3.1l-6.3 31.9s4 0 6.5-.8c2.4-.8 5.1-3.4 5.1-3.4s29.8-21.2 47.7-36.5c0-.3.2-.6.3-.8 6.1-19 9.2-22.1 5.8-28-2.5-4.5-10.9-5-15-5z"/><path style="fill:#7c65bc" d="M341.5 332c.2-.8-.2-15-.6-16.5-.4-1.5-1-2-3-3.1-2-1.2-8-2.4-9-2.2-1.1.1-2.3 1.5-2.3 1.5l-.5 1.2s1.7 3.3 1.6 6.3c0 3-3 10-3.6 11.2-.6 1.2 5.8 2.8 8.6 3.7 2.9.8 3.4 2.1 5.1 1.7 1.8-.4 3.7-3.9 3.7-3.9z"/><path style="fill:#6c58a3" d="M324.7 330.5c-1.3-.2-1.2.7-2.1 2.2l-5.1 7.2c-.6.9-1.4.5-1.4.5s-.7.6-.3 2c.4 1.5 2 2.8 3.6 3.6 1.6.8 13.4 1.8 15.3 1.5 1.9-.3 5.7-4.9 6.4-6.7.6-1.9-2-8.3-2-8.3l-14-2.3-.4.3z"/><path style="fill:#ae97ef" d="M334 322a3 3 0 1 1 0 6.1 3 3 0 0 1 0-6z"/><path style="opacity:.3193;fill:#ff5f52;enable-background:new" d="M253.3 264.6c-1 0-1.7 1.7-1.5 3 .2 2 1.3 4.2 4 6.3 2.6 2.2 3.4 2.7 3.3 4-.1.7-.9 1.8-1.4 2.5l1.8.4c3.9.9 5.2.3 4.6-3s-3.2-5.3-7.4-8.1c-2.3-1.6-3.5-3.5-3.4-5.1z"/><path style="fill:#fa9f6d" d="M379.6 247.2c5.7 8.6 8.3 19.6 8.3 19.6l24.5-16s-4.2-8.3-6-14a66.6 66.6 0 0 0-3.4-8.7l-23.4 19z"/><path style="fill:#9f86e6" d="M380 272s-26.9 32-31.4 40.8c-4.5 8.8-6.6 10.8-5.1 17 1.4 6.2 5.9 39.4 4.2 45.9-1.7 6.5-6.3 8.2-10 15-3.8 6.7 0 15.2 0 15.2s6 4.6 35 6.8 43.6-6.3 45.5-9c2-2.5 4.7-6.1 5.3-10.1.6-4-1.2-7-1.9-13.4-.6-6.3-2-14.8-1.5-24.7.7-10 9.6-25.5 11.2-40.1a130 130 0 0 0-6.7-44.7c-2.5-7.2-10.4-18.5-10.4-18.5L380 272.1z"/><path style="opacity:.357;fill:#6648ba;enable-background:new" d="M343.6 323c-.7 2-.8 4-.1 6.8.7 3.1 2.2 13.1 3.3 23.1l8.5 1.8c14.5 3.1 11.8-3 24.4 2.5 12.6 5.5 16.1-.4 10.8-3.3-5.2-3-2.5-11.5-8.5-15.8-6-4.3-11.7-3.1-22.6-3.2-10.5-.1-12.8-.6-15.8-11.9z"/><path style="opacity:.357;fill:#6648ba;enable-background:new" d="m414.2 252.2-33 19.1c11.8-.5 22.2-6 26.3-3.4 4.6 2.7 3.7 23-2.5 33.7-6.2 10.7-11.3 17.6-3.2 14 8.2-3.6 12.2-9.3 15.6-11.1 3.3-1.8-.2 7.7-4.3 14.9a138.6 138.6 0 0 1-18.1 24.3c-7.5 8-9.5 11-4.1 14.3 5.4 3.3 7.8 5.1 5 13.8-2.8 8.6-10 24.7-14.3 17.4-4.2-7.3-8.7-20-7.6-10.8 1.2 9.3 7.6 17.1 1.6 20.5-6 3.4-8.5 3-16.8-1.7-8.4-4.6-10.4-6.5-14.3-.8-2 3-5.6 3.1-8.4 2.6.2 3.8 1.6 6.9 1.6 6.9s6 4.6 35 6.8 43.6-6.3 45.5-9c2-2.5 4.7-6.1 5.3-10.1.6-4-1.2-7-1.9-13.4-.6-6.3-2-14.8-1.5-24.7.7-10 9.6-25.5 11.2-40.1 1.6-14.7-4.1-37.5-6.7-44.7-2.5-7.2-10.4-18.5-10.4-18.5z"/><path style="fill:#ae97ef" d="M408.8 240.5c3.2 1 4 1.4 2.4 2.9S376.7 264 376.4 265c-.3.8 1.8 10.9 1.8 10.9s39.6-24.3 41.6-25.7c2-1.4.3-3.5-1.9-5.8a17.6 17.6 0 0 0-5.6-4c-1.3-.5-3.5.1-3.5.1z"/><circle style="fill:#c5fff8" cx="354.8" cy="356.4" r="3.4"/><path style="opacity:.3193;fill:#c03016;enable-background:new" d="m403 228-23.4 19.2c1.9 2.8 3.4 5.9 4.6 8.7 5.5-.6 9.3-6.3 13.5-11 2.9-3.2 5.8-7.8 7.6-11-1.3-3.9-2.3-5.8-2.3-5.8z"/><path style="fill:#feb988" d="M280.5 339.2c-3.9-.5-6.3-.5-7.5 0-1.2.4-1.8 1.8-1.8 1.8l5.8 1.5 3.5-3.3z"/><path style="fill:#feb988" d="M276.3 341.2s-2.7-1-4.8-1.1c-2-.2-3.3 1.8-3.3 1.8l5.3 1.5 2.8-2.2z"/><path style="fill:#feb988" d="M273.2 342.4s-3.6-1.2-6.1-1.1c-2.5 0-5.8 2.8-5.8 2.8l7.8 2.6 4-4.3z"/><path style="fill:#feb988" d="M268 344.8s-6.8-1.6-8.7-1.5c-1.9.1-5 2.3-5.4 2.8l-3.8 4.6 6 1s3-1.7 4.8-1.7c1.9 0 5.2.5 5.2.5s.5-1.5 1.2-3c.8-1.5.8-2.7.8-2.7zM340.2 342.8l-49.6 2.1s-2 2-2.7 7c-.5 5 .3 10.7.3 10.7l53.4 6.3s1-7.7.8-14.7c-.3-7-2.2-10.9-2.2-10.9v-.5z"/><path style="fill:#feb988" d="m290.6 345-10.2-5.8s-9.2 3.1-12.7 5.6c-3.6 2.5-3.5 4-3.3 6 .1 1.9 1.1 3.8 1.1 3.8s2.4.1 7.5 2.1c5 2 8.2 3.9 10.4 5 2.3 1.2 6 1 6 1s4-10.2 4.2-12.8c0-2.5-3-5-3-5z"/><path style="fill:#feb988" d="m266 354.7-7.8-.6c-1 0-4.5.6-4.5.6s-7.5 2.9-9.3 2.4c-1.8-.4-2.4-1.6-2.4-2.4-.1-.7 7-4 7.9-4.5a60.3 60.3 0 0 1 16-1.7s.6.4.9 2.6c.2 2.2-.8 3.6-.8 3.6z"/><path style="opacity:.3193;fill:#ff5f52;enable-background:new" d="M274.2 338.9c-.5 0-.9.1-1.2.3a3 3 0 0 0-1.2.9h.2a47.7 47.7 0 0 0 3.9.9c-.5-.3-1.2-1-1.7-2.1zm1.7 2.1.4.3-.4-.3zm-5.9-.7c-.6.3-1 .7-1.4 1 .3 0 1.9.3 2.7.6l2 .7s1-.9-.8-1.5c-1.4-.5-2.2-.5-2.5-.8zm-5 1.5-2.8 1.6 4 .6c1.3.2 2.3 1 2.3 1s1.8-1.2.2-2c-1.6-.6-2.8.5-3.7-1.2zm75.2 1-4.6.2c-3.9 7-2.8 18-2.8 18s-44.3-1-46.6-2c-2.3-1.2-19-7.1-24-7.8-4.8-.6-11.8 3-14.2 3.3-2.4.3-2.9-.1-3.1-1.8-1.6.9-3 1.7-3 2 .1.8.7 2 2.5 2.4 1.8.5 9.3-2.4 9.3-2.4s3.5-.6 4.5-.6l7.8.6c1 0 3.2.5 7 2 5 2 8.2 3.9 10.4 5 1.7.9 4.2 1 5.4 1l52.8 6.2s1-7.7.8-14.7c-.3-7-2.2-10.9-2.2-10.9v-.5zm-84 1.7-2.3 1.6-3 3.6c1.3-.3 4.9-1.1 7.8-1.3 3.6-.2 7.3.3 7.3.3s.7-1-.5-1.5c-1.1-.4-2.3-.2-5.8-.5-3.4-.3-3.3-.8-3.5-2.1z"/><path style="fill:#ae97ef" d="M358.5 339s-3-8.9-1.9-10.8a176 176 0 0 0 4.8-11l1.2-9.6s11.7-26.4 14.7-30.7c2.9-4.3 10.4-7.3 17.6-4.6 7.3 2.6 9-2.4 14.4 4.6s3.6 17.7 3.8 21.9c.1 4.1-4.5 15.2-6.2 22.4-1.8 7.3-17.1 47.5-20.3 50.8-3.1 3.3-7 4-8.4 4.3-1.4.3-19.6-1.2-19.6-1.2s-3.6-3.8-3.5-9.4c0-5.7 2-10.9 1-15-.8-4.1-1.8-7.7-.9-9.3 1-1.6 3.3-2.3 3.3-2.3z"/><path style="opacity:.357;fill:#6648ba;enable-background:new" d="M403.5 273c2.2 1 2.5 2.4 2.3 6.3-.2 7-6.7 15.4-16.4 21.6-9.7 6.2-9.7 9.8-5.8 7.6 4-2 11.7-7.6 14.2-6.1 2.5 1.4 1.5 5.5 1.1 11.5-.4 6-2 14.7-6.2 13.6-4.3-1-4.5-2.5-3.4 1.4 1.2 4 1 9.2-.9 14-1.9 4.8-2.7 5.2-5.8 7-3.1 1.9-1.6 5.6-2.3 9.5-.7 4-7 6-10 3.5-3-2.4-3.3-4.7-5-9-1.5-4.3-5.6-16.4-4.6-11.1 1.1 5.2 4.7 14.4 4 17.4-.6 3-7.8-.8-7.8-.8s-.6.1-1.3.7c-.3 1.8-.5 3.6-.5 5.6-.1 5.6 3.5 9.4 3.5 9.4s18.2 1.5 19.6 1.2c1.5-.3 5.3-1 8.4-4.3 3.2-3.3 18.5-43.5 20.3-50.8 1.7-7.2 6.3-18.3 6.2-22.4-.2-4.2 1.6-15-3.8-22-2.4-3-4-3.7-5.8-3.8z"/><path style="fill:#64519a" d="M358.5 359.9c-.5 3.5-.6 8.2 1 10.7 1.5 2.6 3.5 5 3.5 5s.2 1.2-1.4 2c-1.6.7-7.7 1.7-12 1.4-4.3-.4-8.7-.6-9.8-2.6-1.2-2-4.4-9.6-3.8-13.3.5-3.6.1-4.2 3.5-5.1 3.4-1 19 1.9 19 1.9z"/><path style="fill:#7c65bc" d="M358 336.7c1.8 2 1 4.2.4 5.2a21 21 0 0 0 2.2 11.2c2 3.7 2 5.2 1 6.7-.8 1.5-2.9 2-6.2 2.8-3.3.6-14.8-.1-17.5-.6-2.7-.4-2.6-1-2.8-4.2-.1-3.1 0-10.7.6-13.7.7-2.9 1.6-5.3 4.6-3.9 3 1.4 6.3-.1 8-1.5s2.5-2.9 4.5-2.6l5.2.6z"/><path style="opacity:.357;fill:#ded3ff;enable-background:new" d="M388.9 271.3c-5 0-9.5 2.5-11.6 5.6-3 4.3-14.7 30.7-14.7 30.7l-1.2 9.5s-3.7 9.2-4.8 11.1c-1.1 2 2 10.9 2 10.9s-2.4.7-3.3 2.3c-.4.6-.4 1.4-.4 2.3 2.6 4.8 5 1.6 6.4-2.9 1.4-4.6-1.8-7.1-1.8-12.2s2.1.8 4.7 5.6c2.6 5 6 9 6.7 7.4.8-1.6-4.7-13.7-5-18.3-.4-4.6-.2-6.4.5-10.6.7-4.2 1.3-3.2 6.6-6.3 5.3-3 12.5-8.9 16.2-11.9 3.8-3 .6-2.5-5.5 1.5-6 4-8.9 5.1-11.2 6.9-2.3 1.8-2.8-2-.7-7.7 2.1-5.5 7.8-19.5 17.4-24h-.3z"/><path style="fill:#802f7d" d="M419.8 143.8s3-12.7 7.4-16.1c4.4-3.4 11.5.3 19.1 3.8s13.5 8.3 15.9 13.9c2.3 5.5 3.8 22.3 6.4 29.2 2.6 6.9 6.1 8.9 6.5 10.2.4 1.4-7.2-3.7-7.2-3.7s2 11.1 7.7 16c5.6 5 8.1 4.1 8.3 5.8.2 1.8-5.6 6-11.9 4-6.3-1.9-8.8-2-8.8-2s0 8.5 2.6 12.5c2.7 3.9 4.2 6 2.8 5.4l-7.2-3.6s2 5.7 5.9 9.7c3.9 4 6.1 4.9 6.1 4.9s-8.3 3.1-19.7-5.8c-11.3-9-18.6-17.6-15.8-33.2 2.7-15.6 2.5-31.8 1.8-36.4-.7-4.7-2.6-6-5.6-5.8-3 .2-7.8 2.5-7.8 2.5s-2-.5-4.1-4.5c-2.2-4-2.4-6.8-2.4-6.8z"/><path style="opacity:.4933;fill:#501b4e;enable-background:new" d="M435 138c-4.9 0-8.8 3.2-10 9.3l-2.3 4.2c2 3.2 3.6 3.6 3.6 3.6s4.8-2.3 7.8-2.5c3-.1 5 1.1 5.6 5.8.7 4.6 1 20.8-1.8 36.4-2.8 15.6 4.5 24.2 15.8 33.2 11.4 9 19.7 5.8 19.7 5.8s-2.2-1-6.1-5c-3.4-3.4-5.3-8-5.7-9.2-.5-.4-1-.7-1.3-1.1-5.8-5.3-13.3-17.9-11-28.5a81.5 81.5 0 0 0 1.8-27c-.9-7.8-10-14.4-10-14.4s4.2-2.4 9 5c4.9 7.2 6.9 12.4 11.4 18.5s7.4 6.3 7.4 6.3-11.7-10.5-13.6-22.7c-2-12.3-5.2-12.3-13.1-16.1-2.5-1.2-5-1.7-7.2-1.7z"/><path style="fill:#802f7d" d="M334 214.5c-1.3 0-2.6.5-2.6.5 2 6 1.3 5.6-2.4 14.4a28.3 28.3 0 0 0 2.6 26.2c4.8 6.5 6.8 6 11.1 8.5 4.4 2.5 7 6.1 7 6.1s-.6-4-4.2-10c-3.5-6-6.6-14.7-5.8-21 .8-6.3 2.5-7 2-12.8a16.5 16.5 0 0 0-6-11.6c-.4-.2-1-.3-1.7-.3zm3.6 12.2c-.4.9-3.7 7.8-1.8 17.7 2 10.7 6.8 15.4 6.8 15.4s-8.3-3.1-10-12c-1.7-8.5 4.6-20.2 5-21z"/><path style="opacity:.4933;fill:#501b4e;enable-background:new" d="M339.3 218.9c-1.6.2-2.6.8-2.6.8-7 8.6-10.7 20.8-6.1 30.6 4.5 9.9 8 7 14.3 12.6 2 1.7 3.3 3.6 4.2 5.2-.5-1.7-1.6-4.5-3.6-7.8-3.5-6-6.6-14.8-5.8-21.1.8-6.3 2.5-7 2-12.8-.1-3-1.2-5.5-2.4-7.5zm-1.7 7.8c-.4.9-3.7 7.8-1.8 17.7 2 10.7 6.8 15.4 6.8 15.4s-8.3-3.1-10-12c-1.7-8.5 4.6-20.2 5-21z"/><path style="fill:#802f7d" d="M364.2 131s-20.8 4.9-28 7.4c-7.1 2.4-13 16.3-16.7 25.3-3.7 9-8 19.1-3.4 25.3 4.7 6.2 7 5.2 5.3 11.9-1.7 6.7-3.8 9 .8 13s15.4 3.6 15.4 3.6l32.4-57.8-5.8-28.7z"/><path style="opacity:.4933;fill:#501b4e;enable-background:new" d="M353.5 138s-10.3 3.7-16.4 4c-2.1 0-3.5-.6-4.4-1.5-5.6 5-10.2 15.7-13.2 23.2-3.7 9-8 19.1-3.4 25.3 4.7 6.2 7 5.2 5.4 11.9-1.8 6.7-3.9 9 .7 13 3 2.7 8.8 3.4 12.4 3.6l3.3-.5.2-.3a92.1 92.1 0 0 1-6.6-21.7c0-6.2 10.3-18.3 17.8-21.9 7.6-3.6 16-7.5 19-14 .4-1.1.8-2 1-2.9l-.7-3.7c-13.7 15-32.1 14.2-38.3 17.4a27.2 27.2 0 0 0-7.9 5.7c2.4-3 12-14.7 17.3-18.6 6.1-4.5 14.3-11.5 14.3-11.5l-23 13.7c-5.3 3.2-6 4.6-6 4.6s-.8-3.6.5-7.1c1.3-3.5 6.7-11.2 13-13.2 6.5-2 15-5.4 15-5.4z"/><path style="fill:#802f7d" d="M366.7 126.3c-4.5 5.8-5.4 12-5 19.4.2 7.4 6.5 13 6.5 13s.6 6.8 5 13.5c4.4 6.6 29.9 40.2 34.5 43.3s7.7-.5 13-2.5c5.5-2 8.3-5.7 9.2-11.4.9-5.7 3.3-35.3 2-42.8a32.8 32.8 0 0 0-9.3-17.9c-5-5.6-8.2-15.8-25.3-16.4-17-.6-23.4.1-25.8 0a8.7 8.7 0 0 0-4.8 1.8z"/><path style="opacity:.4933;fill:#501b4e;enable-background:new" d="m401.3 124.8.7.8c24 15.1 21.5 24.9 23 28.2 1.5 3.4-2.8-1.8-2.8-1.8s1-5-11.5-13.7c-12.4-8.5-20.5-9.2-24-9-3.5.2-5 2.4-5 2.4s16.7-2 28.9 11.2c12.2 13.1 13.3 21.6 13.6 24.9.4 3.2-6.7-.1-6.7-.1l-12.3-8.4s8.6 11 13 18.5c4.3 7.5 4.6 11.4-.2 10.4-4.7-1.1-10.6-3.9-10.6-3.9s-6.3 17.3-5.6 24.2l.1 1c2.7 3 4.8 5.3 5.8 6 4.7 3.1 7.7-.5 13-2.5 5.5-2 8.3-5.7 9.2-11.4.9-5.7 3.3-35.3 2-42.8a32.8 32.8 0 0 0-9.3-17.9c-4.6-5.1-7.6-14.1-21.3-16z"/><path style="fill:#feb988" d="M368 158.5c-1.5 4.4-17.9 11.3-27.3 15.5-10 4.6-12 11.3-13 14.4l-.8 1.5a78.9 78.9 0 0 0 4 17.2c1.7 4 2.8 12.2 7.3 19.4 9.9 15.8 14.3 17.6 22.3 23.4a19.6 19.6 0 0 0 14.7 3.2c4-.6 21-10.2 27.7-21.8 6.6-11.6 6-17.2 6-17.2s1.9.8 5 .2c3-.7 6.3-7.4 7-13.2.7-5.8-3.4-8.1-7-8.6s-6 3.8-6.9 4.5c-.8.6-6.2-1.1-6.9-1.5-.7-.3-13-11.7-21.5-21.5-6.3-7.1-9.3-13-10.5-15.5z"/><path style="opacity:.3193;fill:#ff5f52;enable-background:new" d="M363.4 162.9c-6 3.8-16 8.1-22.7 11.1-10 4.6-12 11.3-13 14.4l-.8 1.5 1 7.2.4 1.3c1.8-16.2 11.6-20.8 21.6-25.4a45.5 45.5 0 0 0 13.5-10.1zm11.7 6.9a65 65 0 0 0 13.7 17.5 33 33 0 0 1 11.7 34.1c-2.5 12.2-16.5 25.6-23.7 31.2a61 61 0 0 0 26-21.3c6.7-11.6 6.2-17.2 6.2-17.2s1.8.8 4.8.2c3-.7 6.4-7.4 7.1-13.2.7-5.8-3.4-8.1-7-8.6s-6 3.8-6.9 4.5c-.8.7-6.2-1.1-6.9-1.5a253.8 253.8 0 0 1-25-25.7z"/><path style="fill:#cf6c56" d="M410.6 199.8s.8-3.4 3.8-3.4c3-.1 4 3.6 3.8 5-.3 1.3-1.1 2.4-1.1 2.4s-1.8-2.5-3.1-.6c-1.4 2-1 3.5.3 3.8 1.2.2 2-.2 2-.2s-1.2 4-4.2 4.7c-3 .8-3.3-2.4-3.3-2.4s1.8 1.5 2.8.9c1-.7 1.5-1.7 1.5-1.7s-2.6-2-2.4-3.9c.1-1.8 1.4-2.5 1.4-2.5s.2-.7-.3-1.3c-.4-.6-1.2-.8-1.2-.8z"/><path style="fill:#802f7d" d="M404.2 139.5a56.5 56.5 0 0 1 10 51.4c-3.4 10.2-3.7 8.9-2.6 14.8 1.1 6 4.4 7 3 16.3-1.4 9.2-4 14.2-2.5 20.6 1.6 6.4 2.3 9.4-1.2 6.8a35 35 0 0 1-8.3-20.9c.3-6.6 3.6-24 .7-28.5-2.8-4.6-9-8.6-18.1-17.9-9.2-9.3-17.7-20.4-18.7-28.8-1-8.5 4.4-16.9 15.2-18.1 10.7-1.2 22.5 4.3 22.5 4.3z"/><path style="opacity:.123;fill:#c06bbd;enable-background:new" d="M397.2 146c-20.6 1.1-30.9-3.8-37.6-9.4-6.6-5.6-11-.5-16.4.5-5.3.9 3.6 7.2 10.8 13.4 7.2 6.1 13.9 3.7 21.2 6 7.3 2.3 10 6.6 18.2 5.9 8.2-.8 11.3-4.8 11.6-9 .3-4-7.8-7.4-7.8-7.4z"/><path style="opacity:.4933;fill:#501b4e;enable-background:new" d="M398.3 140.3c-2.7 0-4.7 1.5-4.7 1.5 10.8 12.7 9.8 18 13.3 28.3 3.5 10.1 2.6 11.2 2.6 11.2s-3.3-5.3-8.1-11-9.4-8.5-9.4-8.5 9.7 11.6 13.4 18.4c3.8 6.8 2.2 11.7 1.9 14.1-.3 2.4-2.7 0-7.2-5.4s-7.8-6-7.8-6 5 4.6 7.3 12.6c1.5 1.6 2.8 3 3.7 4.5l.7 1.4c3.1 2.5 5.1 2.5 6.6 0l.5-.8c.2-1.8 1.1-3.9 3-9.7a56 56 0 0 0-2.4-39c-.6-1-1.3-1.7-1.9-2.4-4.4-5-5.9-7.8-9.5-9l-2-.2zM408.5 208.7c.3 2 1.2 9.9-.8 16.8-2.3 7.9-2.1 11-2.1 11s-1.8-2.8-3-6.4c.5 6.8 5.2 16.9 8.3 19.3 3.5 2.6 2.8-.4 1.2-6.8-1.5-6.4 1.2-11.4 2.5-20.6.5-3 .4-5.2.1-7 1.1 7.8-2.9 10.4-3.8 16.1-1 6.4-.3 10-.3 10s-2.8-3-1.6-12.2a82 82 0 0 0-.5-20.2z"/><path style="opacity:.123;fill:#c06bbd;enable-background:new" d="M453.8 138.1c5.2 7.1 8.8 21.5 6.3 25.7-2.5 4.2-5 10-3 22 2.1 11.9 4.8 13.8 7.3 12.1 2.5-1.6 1-12.8.6-21-.3-8.2 1.2-9.8-1.7-21.2-3-11.5-9.5-17.6-9.5-17.6z"/><path style="fill:#802f7d" d="M344.5 190.3c2 2.2.3 3.6-1 3.7-1.4 0-4.4-1-8-1.5-3.4-.4-6.9 3.3-7.4 3.6-.5.3-.5-.7-.4-1.4 0-.8 2.2-4.2 7.1-5.4 5-1.2 8.7.2 9.7 1zM356.5 183.8c.8 3.8 3.3 3.9 5.1 3 2-1 5-3.7 9.1-5 4-1.4 6.8-1.3 8.7-1 2 .5 4.5 1 5.3.4.7-.6-3.8-2.7-6.8-3.6-2.9-1-6.4-.8-11.5.2-5 1-9.7 4.3-10 6z"/><path style="fill:#cf6c56" d="M351 219.4c-1.3 2.4-1.3 4-.3 5.5s3.5 1.1 3.5 1.1-2-.6-3-2.1c-1.1-1.5-.3-4.5-.3-4.5zM357.8 223.5c2.2-.8 4.5.5 4.5.5s.4-1.2-1-1.9c-1.6-.6-3.6 1.4-3.6 1.4zM364.5 218.3c2 2.4.4 5.5.4 5.5s1.3-1 1.4-2.6c0-1.6-1.8-3-1.8-3z"/><path style="fill:#fff" d="M350.5 210.7c-1.1-2-2.9-7-6-8.8-3.2-1.8-6.3 0-7.8 1.6-1.4 1.8-1.7 3.2-2.2 4-.5.7 1.4 5.4 4.3 7.1 2.8 1.7 5.6.2 6.8-.5 1.3-.6 3-1.3 4-1.1 1 .1 1.8-.9 1-2.3z"/><path style="fill:#802f7d" d="M339.3 202c-.2 2 .6 7.3 2.4 9.2 1.8 2 2.8 2.2 4.3 1.5 1.5-.7 2-2.8 1.8-4.8-.3-2-1-4-1-4s-1.4-2.1-3.6-2.6c-2.3-.6-3.1 0-3.6.2-.4.1-.3.5-.3.5z"/><path style="fill:#fff" d="M367.5 207.8s-.8-7.6 3-11.7c3.7-4.1 8.4-3.4 10.7-2.7 2.4.6 4.5 1.7 5.9 1.9 1.3.2 1 2 .8 3-.1 1-.6 5.7-4.1 8.2-3.6 2.5-9.5 1.6-11.5 1.4-2-.3-3 .7-4 .6-1-.2-.8-.7-.8-.7z"/><path style="fill:#802f7d" d="M374.8 193.5c-.2 4.3.6 9.2 4 11.4 3 2 5.5.3 6.1-1.5.9-2.3-.6-9-.6-9s-1.7-1.7-5.1-1.9c-3.4-.2-4.4 1-4.4 1z"/><path style="fill:#8b3729" d="M354.1 232.5c1.4.4 2.5-.5 3.4-.8l5.7-1.2c1.7-.4 3-1.2 4.5-1.4 1.5-.2 5-.5 6.7-1.2 1.8-.7 2.6-1.3 3-.9.3.5 0 7-2.2 10.7-2.4 3.7-7.5 5-11.5 3.6s-6.5-4.4-8-6.1c-1.7-1.7-1.6-2.7-1.6-2.7z"/><path style="fill:#fff" d="m376.8 226.9-2.4 1c-1.8.7-5.2 1-6.7 1.2-1.6.2-2.8 1-4.5 1.4l-5.7 1.2-1.7.7c1 1.6 2.1 2.7 4 2.7 2.1 0 14.8-3.8 16-4.7 1-.6 1-2.7 1-3.5z"/><path style="fill:#ff9d9d" d="m376.7 233.1-2.6.3c-2.7.3-7.4 2.3-9 7.5v.8c3.7.7 8-.7 10-4 .9-1.3 1.4-3 1.8-4.6h-.2z"/><path style="fill:#40113e" d="M343.1 202c-2.3-.2-2.4 2.3-2.2 3.6.2 1.4.4 6 3.1 5.9 2.8 0 2-4.6 1.5-6.5-.5-2-1-3.1-2.4-3zM379.5 193.5c-2.3.1-2.5 2.2-2 4.7.7 2.4 1.6 5.8 4.2 5.3 2.5-.6 2-4.3 1.2-6.8s-1.7-3.3-3.4-3.2z"/><path style="fill:#40113e" d="M350 209.6s-1.8-7.6-5.7-9c-4-1.3-6.7-.1-8.1 1.6-1.4 1.7-2 3-2.7 4.2-.8 1-.3 2.8 1 4.2 1.1 1.5 2.4 2.4 2.4 2.4s-1.9-3.4-2-5c0-1.8 2.4-4.9 4.6-5.9 2.3-1 4.6-.8 6.6 1.6 2 2.4 3.9 5.9 3.9 5.9zM367.3 207s-1.4-7 2.5-11.7c3.9-4.8 10.7-4 13.3-3.2 2.6.9 4.2 1.8 5.4 2 1 0 .9 2.2.6 3.5-.3 1.3-1.5 2.1-1.5 2.1s.5-3-.2-3.7-5.2-2.8-8.6-3a9.2 9.2 0 0 0-9.2 5.6c-1.8 4-2 5.7-2 5.7l-.3 2.7z"/><circle style="fill:#fff" cx="340.4" cy="204.2" r="1.9"/><path style="fill:#fff" d="M376.1 193.9a1.8 1.8 0 1 1 0 3.7 1.8 1.8 0 0 1 0-3.7z"/><path style="fill:#40b0a6" d="M384 491.5c9.7-7.3 28.4-23 35.2-29.4 6.9-6.3 13.2-9.3 15.6-17.8 2.3-8.6 9.7-47.5 13.2-64a497.3 497.3 0 0 1 25.3-71.9 283.2 283.2 0 0 0 16.8-51.2c1.7-9.7-2.3-15.7-4.4-17.7-2.1-2-4-1-8.7 1-4.5 2.1-26.2 11-27.7 13.4-1.5 2.5-4.3 11.6-4.3 11.6S414.5 369 409.7 386c-4.8 17.2-18.2 47.7-21.7 62.2a131.7 131.7 0 0 0-4.5 30.7c0 6.5.6 12.6.6 12.6z"/><path style="fill:#5adbd0" d="M380.8 490.4c-7.1-4.2-6.4-11.7-3-22.4l25-75.7s6-33.8 10.2-46c4.3-12.3 11.4-26.9 11.4-26.9s3-20.7 7.2-31.1a221.3 221.3 0 0 1 14.4-31c3.7-5.2 7.2-3 8 0 1 3-5.6 15.1-10 26.5s-11 31.3-11.3 34.2c-.3 3-4.2 11.5-7.9 21.1a265.9 265.9 0 0 0-12.1 45.2c-.4 8-2.3 9-3.3 12.2-1 3.1-13.3 34-15.6 56-2.2 22.1-2.7 28.4-6 34.9-3.1 6.5-7 3-7 3z"/><path style="fill:#318d85" d="M457.7 292c.5 8-5.7 25.5-4.4 26.5 1.4 1 10.4-2.8 12.3-4.3 2-1.6 5.4-20.9 5.7-24.7.4-3.8.6-4.1-3-3.8-3.7.3-8.5 1.8-9.7 2.8-1.1 1-1 3.6-1 3.6z"/><path style="fill:#5adbd0" d="M374.4 475.5c5 4 5 11.2 3 16-2 4.6-9.8 9.2-22.6 3.2-12.8-6-37-10.1-51.6-10.4-14.5-.3-21.3.3-24.5-3.6-3.2-3.9-3-9.3 2.2-10.1 5-.9 58 3.2 69.6 4 11.6 1 24 1 24 1z"/></g></svg>